<svg width="303" height="200" viewBox="0 0 303 200" fill="none" xmlns="http://www.w3.org/2000/svg">
<rect width="303" height="200" fill="#1E1E1E"/>
<path d="M2 129C2.28158 135.758 2.77337 142.563 4 149.222C4.34294 151.084 4.94068 156.709 7 157.944C10.4773 160.031 15.1772 161.824 19.2222 162C21.8241 162.113 26.5132 164.212 28.9444 162.389C32.6297 159.625 33 154.95 33 150.667C33 140.315 40.6506 133.29 43 123.444C50.7561 90.9429 55.2237 57.819 64.6667 25.5556C65.2092 23.7019 69.8945 12.0117 69.9444 12.6111C70.4808 19.047 70.4237 25.3619 71.4444 31.7778C72.4986 38.4041 72.7742 44.7038 76 50.6667C80.7239 59.3987 83.5355 69.2737 87.8889 78.2222C89.2963 81.1152 89.7032 83.8608 90.6667 86.8889C92.7437 93.4167 96.8864 98.6009 100.444 104.333C104.949 111.59 109.516 119.131 113.111 126.889C117.026 135.338 118.479 144.994 122.278 153.611C126.977 164.269 133.516 171.871 144.222 176.778C149.459 179.178 157.227 181.689 163 179.444C174.909 174.813 184.531 157.134 187.722 145.778C197.161 112.186 184.813 77.1331 177.444 44.5C175.836 37.3789 173.885 29.9761 171.444 23.1111C169.906 18.7845 166.543 15.5151 165.444 11.2778C164.429 7.3607 164.777 2 160 2C155.335 2 154.47 7.53882 153.444 11.0556C148.703 27.3129 150.762 47.0177 149.944 63.7778C148.425 94.9357 142 125.279 142 156.5C142 161.167 142 165.833 142 170.5C142 179.838 138 188.493 138 198" stroke="white" stroke-width="3" stroke-linecap="round"/>
<path d="M24 88C25.6456 111.861 42.0702 133.126 57.7222 150.056C66.0797 159.095 75.2967 166.161 86.8889 170.5C95.2807 173.641 102.718 175.502 111.444 177.722C118.833 179.602 126.348 182.241 134.167 180.778C150.211 177.774 165.875 164.23 177.889 154.222C187.429 146.275 197.695 136.783 203.222 125.333C208.704 113.979 206.451 98.1904 200.556 87.5556C194.586 76.7866 186.733 66.8906 180.111 56.5C169.61 40.0214 156.911 21.9858 138.167 14.2778C115.932 5.13466 75.6887 9.01463 60.6667 30.2222C36.9227 63.7431 40.1518 114.401 70.1111 142.389C82.1616 153.647 93.9636 157.503 110.333 158.556C127.311 159.647 146.713 158.258 161 148C180.096 134.288 192.306 110.019 198 87.6667C198.622 85.2234 204.051 68.4359 200.333 66C193.743 61.682 186.706 71.1173 183.944 75.5556C175.821 88.6107 170.564 102.909 172.667 118.389C174.693 133.31 197.878 160.045 214.222 147.111C227.338 136.733 238 115.58 238 98.7222C238 90.1911 235.621 115.804 236.611 124.278C237.531 132.145 239.967 141.825 249.222 142.667C259.421 143.594 266.405 134.714 267.556 125.333C267.786 123.452 268.866 113.06 266.444 111.778C265.088 111.06 265.867 114.801 265.778 116.333C265.718 117.355 265.236 128.046 265.222 128.778C265.183 130.909 266.526 151.076 273.278 147.278C279.983 143.506 285.441 131.717 285.944 124.167C286.118 121.569 286.571 118.294 283.778 117C282.761 116.529 277.27 114.895 280.111 117.667C289.236 126.569 294.535 115.172 301 110" stroke="white" stroke-width="3" stroke-linecap="round"/>
</svg>
